<?xml version="1.0" encoding="utf-8"?>
<!-- Generator: Adobe Illustrator 24.1.0, SVG Export Plug-In . SVG Version: 6.00 Build 0)  -->
<svg xmlns="http://www.w3.org/2000/svg" xmlns:xlink="http://www.w3.org/1999/xlink" version="1.1" id="レイヤー_1" x="0px" y="0px" viewBox="0 0 360 102" style="enable-background:new 0 0 360 102;" xml:space="preserve">
<style type="text/css">
	.st0{fill:#404041;}
	.st1{fill:#364EA2;}
</style>
<path class="st0" d="M133.2,31.9h17.1v6h-17.1V31.9z M133.2,61.6h6.1V43.5h11.1v22.1h5.9V43.5h11.2v10.4c0,1.3-0.4,1.5-1.5,1.5H159  l1.4,6.2h8.4c4.1,0,4.7-2.4,4.7-4.7V39.8h6.1V26.5h-12.2c0.7-2.4,1.5-5.6,1.7-6.6h11.9v-5.5h-24.6v-4.4h-6v4.4h-24.5v5.5h11.8  c1.2,3.7,1.5,5.5,1.7,6.6h-12v13.3h5.8V61.6z M156.2,31.9h17.3v6h-17.3V31.9z M162.9,19.9c-0.8,4-1.1,5-1.7,6.6h-15.7  c-0.6-2.4-0.7-2.8-1.8-6.6H162.9z"/>
<path class="st0" d="M228.5,39.5H197v-8.7h31.5V39.5z M191.1,25.4V45h18.9v13c0,1.5-0.6,1.6-2,1.6h-8.2l1.1,6.2h9.7  c4.3,0,5.3-3,5.3-5.7V45h18.7V25.4H191.1z M209.4,14.9h-24.5v6h55.9v-6h-25v-5h-6.4V14.9z M197.6,46.8c-2.5,3.6-6.5,8.7-13.2,13  l4.3,4.7c7.4-4.9,13-12.9,14.1-14.5L197.6,46.8z M240.8,58.9c-5.5-3.2-9.4-6.6-13.7-12.3l-5.3,3.2c4.7,6.5,7.9,10.2,14.9,14.3  L240.8,58.9z"/>
<path class="st0" d="M243.2,59c17.2-6.5,23.1-20.9,24.7-28.7h-23.5v-6.3h24.1V9.9h6.6v14.2h24.6v6.3h-23.5  c2.7,13.8,10.3,24.7,24.9,28.7l-4.2,6.5c-15.4-6.9-21.4-15.8-24.7-26.5h-0.1c-4.1,10.6-12.3,21.6-24.7,26.1L243.2,59"/>
<path class="st0" d="M312.7,19.5c-1.2-3.2-2.7-5.9-3.6-7.3l5.8-2.1c1.6,2.3,3.4,5.8,4.4,8.9l-1.4,0.4v0.1h11.9  c-1.5-3.4-2.6-5.5-4-7.6l5.9-2.3c1.2,1.9,3.6,6.3,4.5,9.2l-2,0.5v0.1h9.6c0.7-1.4,1.6-3.1,3.9-9.7l6.8,2c-1.4,3.1-2.1,4.7-3.9,7.7  h7.5v13.6h-6v-7.9H311v7.9h-6V19.5H312.7 M349.7,29.6v4.9c-3.3,3-10.4,7.6-15.1,9.5v0.5h24.9v5.8h-24.9v10.6c0,4.2-4.1,4.9-4.9,4.9  h-11.6l-1.1-6.3h9.5c1.7,0,1.7-0.8,1.7-1.9v-7.4h-24.8v-5.8h24.8v-4.6h2.6c2.1-0.7,6.2-2.4,8.8-4.7h-26.4v-5.6H349.7z"/>
<path class="st1" d="M65,29.4c-0.6,0.8-1.2,1.6-1.8,2.4c-9,11.4-18.7,18.8-21.5,16.5c-2.1-1.7-0.1-8,4.7-15.7  c-1.4,0.6-2.8,1.2-4.2,1.9c-12.8,6.3-21,15.6-18.5,20.7c2.5,5.1,14.9,4.2,27.7-2.1c12.8-6.3,21-15.6,18.5-20.7  C69,30.8,67.3,29.8,65,29.4"/>
<path class="st1" d="M48.9,28.5c1.1-1.6,2.4-3.3,3.7-5c7.3-9.2,14.9-15.8,19.1-16.8C65.8,5,59,3.5,51.9,2.4C24.3-2,1.1,0.3,0,7.4  C-1.2,14.6,20.2,24,47.7,28.3C48.1,28.4,48.5,28.5,48.9,28.5"/>
<path class="st1" d="M74.7,7.5c1.7,3-2.7,12.6-10.4,22.7C84,31.6,98.8,29,99.7,23.3C100.4,18.3,90.3,12.2,74.7,7.5"/>
<path class="st1" d="M38,77.7c5.6,4.6,12.4,5.7,15.2,2.3c2.7-3.3,0.4-9.8-5.3-14.4C42.3,61,35.5,60,32.7,63.3  C30,66.6,32.4,73.1,38,77.7"/>
<path class="st0" d="M8.6,88.4l0.2,1.9h0.4l0.2-0.8c0-0.2,0.2-0.4,0.5-0.4h2.4v8.7c0,0.4-0.6,0.5-1.2,0.6v0.4h4.7v-0.4  c-0.7-0.1-1.2-0.2-1.2-0.6v-8.7H17c0.2,0,0.5,0.1,0.5,0.4l0.2,0.8h0.4l0.2-1.9H8.6"/>
<path class="st0" d="M43.3,88.8v-0.4h-4.2v0.4c0.7,0,1,0.2,1,0.6v8.5c0,0.4-0.3,0.5-1,0.6v0.4h4.2v-0.4c-0.7-0.1-1-0.2-1-0.6v-8.5  C42.3,89,42.6,88.8,43.3,88.8"/>
<path class="st0" d="M59.5,97.9l-4.4-5.2l3.4-3.3c0.5-0.4,0.7-0.7,1.2-0.7v-0.4h-1.3L53,93.5v-4.2c0-0.4,0.3-0.5,1-0.6v-0.4h-4.2  v0.4c0.7,0.1,1,0.2,1,0.6v8.5c0,0.4-0.3,0.5-1,0.6v0.4H54v-0.4c-0.7-0.1-1-0.2-1-0.6v-4.2l4.3,5.2h3.3v-0.4  C59.9,98.3,59.7,98.2,59.5,97.9"/>
<path class="st0" d="M70.6,94.4v3.4c0,0.4,0.4,0.5,1,0.6v0.4h-4.1v-0.4c0.7-0.1,1-0.3,1-0.6v-3.3l-3.4-5.2c-0.1-0.2-0.4-0.4-1-0.5  v-0.4h3.2l3.1,4.7l2.6-4.7h1.4v0.4c-0.3,0-0.6,0.1-0.8,0.4L70.6,94.4"/>
<path class="st0" d="M31.7,96.9l-0.5,0.9c-0.2,0.2-0.3,0.4-0.5,0.4h-3.3v-4.4h2.7c0.3,0,0.4,0.5,0.5,1H31V92h-0.4  c-0.1,0.5-0.2,1-0.5,1h-2.7v-3.9h3.3c0.2,0,0.5,0.1,0.5,0.4l0.2,0.8h0.4l0.2-1.8h-7.7v0.4c0.7,0.1,1,0.2,1,0.6v8.4  c0,0.4-0.3,0.5-1,0.6v0.4h7.7l0.3-1.9H31.7"/>
<path class="st0" d="M83.7,88.9c2.2,0,3.2,1.6,3.2,4.7c0,3.2-0.9,4.7-3.2,4.7c-2.2,0-3.2-1.5-3.2-4.7C80.6,90.4,81.5,88.9,83.7,88.9   M89.2,93.6c0-3.8-1.9-5.5-5.5-5.5c-3.6,0-5.5,1.7-5.5,5.5c0,3.8,1.9,5.5,5.5,5.5C87.3,99.1,89.2,97.4,89.2,93.6"/>
<polyline class="st0" points="127.2,75 144.2,75 144.2,78.2 137.5,78.2 137.5,96 133.8,96 133.8,78.2 127.2,78.2 127.2,75 "/>
<path class="st0" d="M146.3,87.1c0.1-2.3,1.7-4,4-4c2.3,0,3.7,1.9,3.8,4H146.3 M157.5,89.3c0.6-4.6-2.4-8.9-7.2-8.9  c-4.5,0-7.4,3.7-7.4,8.1c0,4.7,2.7,8,7.5,8c3.3,0,6.2-1.9,6.9-5.2h-3.2c-0.6,1.7-1.8,2.5-3.7,2.5c-2.8,0-4.1-2.1-4.1-4.5H157.5z"/>
<path class="st0" d="M160.9,80.8h3.4V96h-3.4V80.8z M160.9,75h3.4v3.2h-3.4V75z"/>
<polyline class="st0" points="168.7,75 172.1,75 172.1,87 178.2,80.8 182.3,80.8 176.5,86.4 182.9,96 178.8,96 174.1,88.6   172.1,90.6 172.1,96 168.7,96 168.7,75 "/>
<path class="st0" d="M183.5,80.8h3.7l4,11.4h0.1l3.9-11.4h3.5l-5.9,16.1c-1.1,2.7-1.9,5.2-5.4,5.2c-0.8,0-1.6-0.1-2.3-0.2v-2.8  c0.5,0.1,1.1,0.2,1.6,0.2c1.6,0,1.9-0.8,2.4-2.1l0.4-1.2L183.5,80.8"/>
<path class="st0" d="M208.2,93.8c-3,0-4.3-2.7-4.3-5.4c0-2.6,1.3-5.4,4.3-5.4c3,0,4.3,2.7,4.3,5.4C212.6,91.1,211.3,93.8,208.2,93.8   M208.2,96.4c4.9,0,7.7-3.4,7.7-8c0-4.7-2.8-8-7.7-8c-4.9,0-7.7,3.4-7.7,8C200.5,93.1,203.4,96.4,208.2,96.4"/>
<path class="st0" d="M227.1,75h3.7v12.3c0,2.8,0.2,6.1,5,6.1c4.8,0,5-3.3,5-6.1V75h3.7v13.5c0,5.4-3.5,8.1-8.6,8.1  c-5.2,0-8.6-2.7-8.6-8.1V75"/>
<path class="st0" d="M248.1,80.8h3.2V83l0.1,0.1c1-1.7,2.7-2.7,4.7-2.7c3.3,0,5.4,1.8,5.4,5.2V96h-3.4v-9.6c-0.1-2.4-1-3.4-3-3.4  c-2.2,0-3.7,1.8-3.7,4v9h-3.4V80.8"/>
<path class="st0" d="M265.2,80.8h3.4V96h-3.4V80.8z M265.2,75h3.4v3.2h-3.4V75z"/>
<polyline class="st0" points="270.7,80.8 274.3,80.8 278.2,92.5 278.3,92.5 282,80.8 285.4,80.8 280,96 276.2,96 270.7,80.8 "/>
<path class="st0" d="M290.1,87.1c0.1-2.3,1.7-4,4-4c2.3,0,3.7,1.9,3.8,4H290.1 M301.3,89.3c0.6-4.6-2.4-8.9-7.2-8.9  c-4.5,0-7.4,3.7-7.4,8.1c0,4.7,2.7,8,7.5,8c3.3,0,6.2-1.9,6.9-5.2h-3.2c-0.6,1.7-1.8,2.5-3.7,2.5c-2.8,0-4.1-2.1-4.1-4.5H301.3z"/>
<path class="st0" d="M303.9,80.8h3.2v2.9h0.1c0.4-1.6,2.4-3.4,4.5-3.4c0.8,0,1,0.1,1.3,0.1v3.2c-0.5-0.1-1-0.1-1.4-0.1  c-2.3,0-4.1,1.9-4.1,5.2V96h-3.4V80.8"/>
<path class="st0" d="M316.8,91.1c0.2,1.9,1.7,2.7,3.5,2.7c1.3,0,3.5-0.3,3.4-2c-0.1-1.8-2.5-2-5-2.5c-2.5-0.5-4.9-1.4-4.9-4.5  c0-3.3,3.6-4.4,6.4-4.4c3.1,0,6,1.3,6.4,4.7H323c-0.3-1.6-1.6-2-3.1-2c-1,0-2.8,0.2-2.8,1.6c0,1.7,2.5,1.9,5,2.4  c2.4,0.6,4.9,1.4,4.9,4.5c0,3.6-3.7,5-6.8,5c-3.8,0-6.7-1.7-6.8-5.3H316.8"/>
<path class="st0" d="M329.6,80.8h3.4V96h-3.4V80.8z M329.6,75h3.4v3.2h-3.4V75z"/>
<path class="st0" d="M335.1,80.8h2.5v-4.6h3.4v4.6h3v2.5h-3v8.1c0,1.4,0.1,2.1,1.6,2.1c0.5,0,0.9,0,1.4-0.1V96  c-0.7,0.1-1.4,0.2-2.2,0.2c-3.5,0-4.2-1.4-4.2-3.9v-9h-2.5V80.8"/>
<path class="st0" d="M344.8,80.8h3.7l4,11.4h0.1l3.9-11.4h3.5L354,96.9c-1.1,2.7-1.9,5.2-5.4,5.2c-0.8,0-1.6-0.1-2.3-0.2v-2.8  c0.5,0.1,1.1,0.2,1.6,0.2c1.6,0,1.9-0.8,2.4-2.1l0.4-1.2L344.8,80.8"/>
</svg>
